PathFileType	4	(X/Y/Z)	C:\Users\willi\Desktop\Data_PaperCallum_v2\17_Akif\Gait01\marker_experimental_temp.trc
DataRate	CameraRate	NumFrames	NumMarkers	Units	OrigDataRate	OrigDataStartFrame	OrigNumFrames
100.000000	100.000000	8	27	mm	100.000000	157	180
Frame#	Time	C7			T10			Clav			Sternum			Right_Back			PCL_CRAN			PCL_RECHTS			PCL_LINKS			RCL_UL_CRAN			RCL_UL_POST			RCL_UL_ANT			RCL_LL_CRAN			RCL_LL_POST			RCL_LL_ANT			Right_Heel			Right_Toe			Right_M5			LCL_UL_CRAN			LCL_UL_POST			LCL_UL_ANT			LCL_LL_CRAN			LCL_LL_POST			LCL_LL_ANT			Left_Heel			Left_Toe			Left_M5			*26			
		X1	Y1	Z1	X2	Y2	Z2	X3	Y3	Z3	X4	Y4	Z4	X5	Y5	Z5	X6	Y6	Z6	X7	Y7	Z7	X8	Y8	Z8	X9	Y9	Z9	X10	Y10	Z10	X11	Y11	Z11	X12	Y12	Z12	X13	Y13	Z13	X14	Y14	Z14	X15	Y15	Z15	X16	Y16	Z16	X17	Y17	Z17	X18	Y18	Z18	X19	Y19	Z19	X20	Y20	Z20	X21	Y21	Z21	X22	Y22	Z22	X23	Y23	Z23	X24	Y24	Z24	X25	Y25	Z25	X26	Y26	Z26	X27	Y27	Z27	

158	1.57	-621.6473388671876	1381.386962890625	154.8195495605469	-580.2969360351564	1166.344604492188	167.9874267578125	-762.0523071289064	1306.059814453125	174.2542877197266	-817.4265747070314	1142.047241210938	189.5093688964844	-601.9343261718751	1317.037109375	34.69425582885746	-592.5715942382814	991.5631713867188	177.3935546875	-582.4611206054689	933.1801147460938	151.537841796875	-586.2978515625001	929.8895874023438	202.0856628417969	-651.5801391601563	708.595703125	1.019007682800333	-622.2495727539063	651.46875	10.43995380401615	-671.8563842773438	646.699462890625	1.407596230506938	-523.3746948242188	374.0368652343749	42.81924438476566	-480.1870422363281	324.5343322753906	42.79369735717776	-528.8407592773438	308.3943481445312	46.46590805053714	-359.9114379882813	53.7364921569824	135.6517944335938	-557.3690795898438	27.68460845947262	124.5869979858399	-507.7360534667969	7.95440101623532	68.37786102294925	-759.3440551757813	724.0944213867188	346.1058044433594	-765.0606689453125	658.7325439453125	342.9335327148438	-808.7357177734375	682.0242309570313	346.8670959472657	-872.6498413085938	365.4872436523437	314.6347656250001	-875.9137573242188	300.4513854980468	312.9383239746094	-921.7274780273438	322.0200195312499	317.0786743164063	-978.3885498046875	19.89129066467279	229.5429229736329	-1147.216064453125	113.1400299072265	287.9530029296876	-1113.67529296875	63.83784484863274	327.3226623535157	nan	nan	nan	
159	1.58	-636.0563354492189	1379.096801757813	155.7015533447266	-594.9694213867189	1164.027221679688	169.2196197509766	-776.6437988281251	1303.895263671875	175.2129516601563	-832.1948242187501	1139.990966796875	190.2726440429688	-616.4318847656251	1314.762817382813	35.53426361083988	-607.7143554687501	989.3429565429688	178.5788879394532	-597.5305786132814	930.9747314453125	152.711410522461	-601.53564453125	927.6365356445313	203.2610015869141	-663.5436401367188	707.4586791992188	0.998150527477305	-633.6678466796875	650.6290283203125	10.3949127197266	-683.1654663085938	645.3802490234375	0.9600664973259391	-531.3502807617188	374.3447570800781	42.15036773681644	-487.20947265625	325.8520507812499	42.22413635253909	-535.419677734375	308.6080932617187	45.83911132812504	-360.7946472167969	57.66376495361326	134.84521484375	-557.5404663085938	27.66019058227536	124.3669586181641	-507.7947387695313	8.003035545349089	68.38701629638675	-774.9913940429688	721.3165283203125	346.2312927246094	-780.2656860351563	655.8359985351563	343.5451965332032	-824.0916748046875	678.9561767578125	347.0388793945313	-890.5874633789063	363.8711547851562	313.2207031250001	-894.96923828125	299.0375976562499	312.2202758789063	-940.7265625	321.6045837402343	315.4385375976563	-1000.178955078125	19.26594352722162	228.512924194336	-1168.824462890625	116.0003356933593	282.5860595703126	-1137.244384765625	65.81392669677727	322.8842468261719	-88.08019256591821	726.5192260742188	-3209.6767578125	
160	1.59	-650.5361938476564	1376.902954101563	156.6809234619141	-609.8301391601564	1161.767578125	170.4464111328125	-791.3315429687501	1301.880004882813	176.2254791259766	-847.1679077148439	1138.111572265625	191.0877380371094	-630.9729614257814	1312.579956054688	36.49207687377933	-623.0724487304689	987.273681640625	179.6226501464844	-612.8433227539064	928.8895874023438	153.8057098388672	-616.9739990234375	925.568115234375	204.3655242919922	-675.9208984375	706.2820434570313	1.027799606323283	-645.5210571289063	649.72900390625	10.36218547821049	-694.900390625	644.040771484375	0.512460589408917	-539.7682495117188	374.6570739746093	41.35007858276371	-494.6542358398438	327.2196960449218	41.50603485107425	-542.3692016601563	308.8429565429687	45.10092163085941	-361.8218383789063	61.99802017211912	133.8728332519532	-557.76220703125	27.64080238342282	124.1235885620117	-507.8888244628906	8.04825973510739	68.39073181152347	-791.232421875	719.0186767578125	346.3327941894532	-796.5370483398438	653.5254516601563	343.9451599121094	-840.34521484375	676.6594848632813	346.9982299804688	-908.1484375	362.3345336914062	311.9288635253907	-912.9820556640625	297.6752319335937	311.5382385253907	-958.8549194335938	320.6858520507812	313.5978698730469	-1017.789611816406	18.12888336181634	227.1743774414063	-1187.181030273438	116.4772949218749	276.2664184570313	-1157.207153320313	65.85149383544915	317.7185974121094	-88.07349395751977	726.5023803710938	-3209.580810546875	
161	1.6	-665.0835571289064	1374.832763671875	157.7518157958985	-624.8674316406251	1159.595825195313	171.6552734375	-806.1090698242189	1300.035888671875	177.2828369140626	-862.3396606445314	1136.430297851563	191.9398956298829	-645.5538940429689	1310.519775390625	37.5586318969727	-638.6239624023439	985.37890625	180.5147247314453	-628.3801879882813	926.94580078125	154.8160705566407	-632.593017578125	923.7108764648438	205.3953857421875	-688.7471313476563	705.056396484375	1.115906715393109	-657.8436889648438	648.74951171875	10.33955955505375	-707.0979614257813	642.6693725585938	0.07375260442499676	-548.670166015625	374.9692687988281	40.41041183471683	-502.5356140136719	328.6292724609374	40.62388610839847	-549.7109985351563	309.1005859374999	44.24605178833011	-363.0441284179688	66.7609939575195	132.7253570556641	-558.0253295898438	27.61000823974606	123.8505325317383	-507.9938354492188	8.074778556823698	68.39677429199222	-808.0301513671875	717.248291015625	346.3745117187501	-813.7894897460938	651.8355102539063	344.0340270996094	-857.42724609375	675.1547241210938	346.6445922851563	-925.2353515625	360.8270568847656	310.7414855957032	-929.8795776367188	296.2595520019531	310.7680358886719	-975.9713134765625	319.1138305664062	311.5297851562501	-1031.503540039063	16.62094688415521	225.5771942138672	-1202.592895507813	114.4387969970702	269.3857421875001	-1173.7041015625	63.85073471069329	312.1091308593751	-88.06768798828149	726.4876708984375	-3209.497802734375	
162	1.61	-679.6935424804689	1372.9130859375	158.9066162109375	-640.0635375976564	1157.543212890625	172.8340148925782	-820.9674682617189	1298.382568359375	178.3749694824219	-877.6970825195314	1134.966430664063	192.8142852783204	-660.1701660156251	1308.614135742188	38.72218322753911	-654.3405151367189	983.6795654296875	181.2493896484375	-644.1153564453125	925.1632080078125	155.7395324707032	-648.3665161132813	922.0874633789063	206.347885131836	-702.0591430664063	703.7759399414063	1.268327593803449	-670.6759643554688	647.6759033203125	10.32372093200688	-719.8002319335938	641.2591552734375	-0.3487418591975725	-558.1165161132813	375.2810363769531	39.32174682617191	-510.8894653320313	330.0848693847656	39.56492996215823	-557.4864501953125	309.3907470703124	43.26861572265629	-364.5520629882813	71.99311828613278	131.4050750732422	-558.3070678710938	27.54169845581051	123.5461196899414	-508.0762329101563	8.070865631103484	68.41981506347659	-825.300537109375	716.027099609375	346.3399658203126	-831.8196411132813	650.7635498046875	343.7949523925782	-875.178466796875	674.3936157226563	345.9450378417969	-941.7739868164063	359.3393554687499	309.6564025878907	-945.6644287109375	294.7503662109374	309.8178710937501	-991.9927368164063	316.8734130859374	309.2733459472657	-1041.770385742188	15.02665901184076	223.8265533447266	-1215.4951171875	109.9209976196288	262.3595886230469	-1187.009887695313	59.90311431884759	306.3872375488282	-88.0627822875979	726.4750366210938	-3209.427490234375	
163	1.62	-694.3595581054689	1371.169555664063	160.1360015869141	-655.3947753906251	1155.641845703125	173.9709777832032	-835.8950805664064	1296.9375	179.4910125732422	-893.2201538085939	1133.73681640625	193.696273803711	-674.8157958984376	1306.894287109375	39.96846771240239	-670.1881103515626	982.194091796875	181.8257293701172	-660.016357421875	923.5603637695313	156.5749664306641	-664.2626953125	920.7166137695313	207.2216033935547	-715.892822265625	702.439697265625	1.48858213424687	-684.0629272460938	646.50048828125	10.31173419952397	-733.0547485351563	639.8106689453125	-0.7479588985442667	-568.18896484375	375.5967102050781	38.07291793823246	-519.778076171875	331.6071166992187	38.32450103759768	-565.76123046875	309.7314453124999	42.16080093383793	-366.4873352050781	77.75661468505857	129.9328765869141	-558.5698852539063	27.40228080749508	123.2175064086914	-508.0975341796875	8.037154197692839	68.48135375976565	-842.9212646484375	715.3513793945313	346.2365112304688	-850.3432006835938	650.2739868164063	343.2869873046876	-893.3759765625	674.2738037109375	344.9411010742188	-957.72900390625	357.9122924804687	308.6878051757813	-960.4288940429688	293.1894226074218	308.6536254882813	-1006.931640625	314.1214599609374	306.9469909667969	-1049.168090820313	13.70074844360345	222.0735015869141	-1226.392822265625	103.1287460327148	255.569076538086	-1197.513671875	54.28612136840813	300.8968505859376	-88.05876922607446	726.4645385742188	-3209.369873046875	
164	1.63	-709.0733032226564	1369.626708984375	161.4291992187501	-670.8319091796876	1153.92333984375	175.055419921875	-850.8781738281251	1295.715698242188	180.619369506836	-908.8821411132814	1132.75537109375	194.5715484619141	-689.4833374023439	1305.390991210938	41.28106689453129	-686.1276855468751	980.9385375976563	182.2479248046875	-676.044921875	922.1549682617188	157.3232421875	-680.2446899414063	919.6130981445313	208.0165557861328	-730.2810668945313	701.05224609375	1.777274370193526	-698.0528564453125	645.2236328125	10.30027103424077	-746.9137573242188	638.3324584960938	-1.1150364875793	-578.9907836914063	375.9240722656249	36.65127182006839	-529.2951049804688	333.2325439453124	36.90871047973636	-574.6300659179688	310.1473693847656	40.90902328491214	-369.0487976074219	84.13319396972653	128.3494262695313	-558.7645263671875	27.15679359436032	122.8836746215821	-508.0217895507813	7.996593952178924	68.60746765136722	-860.7435913085938	715.1943359375	346.0964965820313	-869.0420532226563	650.3060913085938	342.6236267089844	-911.7652587890625	674.662353515625	343.7396240234376	-973.1146240234375	356.6349182128906	307.8640136718751	-974.3560791015625	291.7006835937499	307.3163757324219	-1020.928466796875	311.1860961914062	304.7413330078126	-1054.341674804688	12.97237682342523	220.4847869873047	-1235.773559570313	94.42920684814446	249.3190155029298	-1205.674072265625	47.43195343017571	295.9545898437501	-88.05565643310571	726.4561157226563	-3209.324951171875	
165	1.64	-723.8247680664064	1368.30712890625	162.7741851806641	-686.3412475585939	1152.418579101563	176.0777282714844	-865.9005737304689	1294.72998046875	181.7478942871094	-924.6501464843751	1132.033081054688	195.4261779785157	-704.1635742187501	1304.133911132813	42.64186096191411	-702.1166381835939	979.9263916015625	182.5253295898438	-692.1575927734375	920.9635620117188	157.9873199462891	-696.27197265625	918.7877197265625	208.7343139648438	-745.2500610351563	699.6238403320313	2.131160020828293	-712.6942138671875	643.853271484375	10.28351783752446	-761.4324951171875	636.84033203125	-1.438475489616347	-590.644287109375	376.2717285156249	35.04302978515629	-539.5687866210938	335.0062255859374	35.33355712890629	-584.2197875976563	310.6651916503906	39.48925399780277	-372.4897155761719	91.2154846191406	126.7086029052735	-558.84033203125	26.77940559387203	122.5759201049805	-507.8299865722656	8.004540443420378	68.8234558105469	-878.6035766601563	715.5101318359375	345.9739990234376	-887.6073608398438	650.7860107421875	341.9481201171876	-930.0904541015625	675.4221801757811	342.4912719726563	-987.9955444335938	355.6281738281249	307.2210998535157	-987.7015380859375	290.4675292968749	305.9263610839844	-1034.25830078125	308.5176696777343	302.8878173828126	-1057.929931640625	13.04809284210199	219.2047424316407	-1244.012573242188	84.34013366699212	243.8159942626954	-1211.960693359375	39.87537384033196	291.8109436035157	-88.05342864990259	726.4497680664063	-3209.292724609375	
